<?xml version="1.0" encoding="UTF-8" standalone="no"?>
<!-- Created with Inkscape (http://www.inkscape.org/) -->

<svg
   xmlns:dc="http://purl.org/dc/elements/1.1/"
   xmlns:cc="http://creativecommons.org/ns#"
   xmlns:rdf="http://www.w3.org/1999/02/22-rdf-syntax-ns#"
   xmlns:svg="http://www.w3.org/2000/svg"
   xmlns="http://www.w3.org/2000/svg"
   xmlns:sodipodi="http://sodipodi.sourceforge.net/DTD/sodipodi-0.dtd"
   xmlns:inkscape="http://www.inkscape.org/namespaces/inkscape"
   width="40"
   height="40"
   id="svg5902"
   version="1.1"
   inkscape:version="0.48.4 r9939"
   sodipodi:docname="gen_marker.svg">
  <defs
     id="defs5904" />
  <sodipodi:namedview
     id="base"
     pagecolor="#ffffff"
     bordercolor="#666666"
     borderopacity="1.0"
     inkscape:pageopacity="0.0"
     inkscape:pageshadow="2"
     inkscape:zoom="3.6681164"
     inkscape:cx="12.481928"
     inkscape:cy="20"
     inkscape:document-units="px"
     inkscape:current-layer="g5918"
     showgrid="false"
     inkscape:window-width="1920"
     inkscape:window-height="1017"
     inkscape:window-x="-8"
     inkscape:window-y="-8"
     inkscape:window-maximized="1" />
  <metadata
     id="metadata5907">
    <rdf:RDF>
      <cc:Work
         rdf:about="">
        <dc:format>image/svg+xml</dc:format>
        <dc:type
           rdf:resource="http://purl.org/dc/dcmitype/StillImage" />
        <dc:title></dc:title>
      </cc:Work>
    </rdf:RDF>
  </metadata>
  <g
     inkscape:label="Layer 1"
     inkscape:groupmode="layer"
     id="layer1"
     transform="translate(0,-1012.3622)">
    <g
       id="g5918">
      <g
         id="g6478">
        <path
           inkscape:connector-curvature="0"
           id="rect6445"
           d="m 1.1249998,1013.2841 0,28.9062 11.2812502,0 7.59375,9.25 7.59375,-9.25 11.28125,0 0,-28.9062 -37.7500002,0 z"
           style="fill:#2a6a00;fill-opacity:1;stroke:#ffffff;stroke-opacity:1" />
        <path
           inkscape:connector-curvature="0"
           d="m 30.995218,1039.603 c 0,0 0.182893,-0.2364 0.308381,-0.3068 0.126326,-0.072 0.574131,-0.1908 0.574131,-0.1908 0,0 -2.590011,-4.1987 -3.6421,-5.151 -1.052439,-0.9529 -0.336388,-1.8801 0.414482,-2.4358 0.749984,-0.5559 1.029268,-1.1372 1.029268,-1.1372 l -0.120479,-0.1393 0.151947,-0.2024 0.212133,-0.3019 c 0,0 0.110404,-0.054 0.05809,-0.1328 -0.05248,-0.078 -0.158994,-0.2676 -0.0683,-0.4019 0.0904,-0.1341 0.259077,-0.3204 0.303938,-0.404 0.04421,-0.083 -0.03045,0.035 0.08293,-0.2958 0.11269,-0.3295 0.203479,-0.4636 0.226316,-0.6595 0.0224,-0.1952 0.119752,-0.8485 0.195412,-0.9659 0.07511,-0.1169 0.0022,-0.2755 0.01288,-0.3891 0.0105,-0.1143 0.227164,-0.3191 0.118838,-0.5406 -0.108175,-0.2219 -0.215658,-0.1027 -0.108926,-0.5619 0.107033,-0.4596 0.224534,-0.3841 0.0849,-0.9119 -0.139725,-0.5281 -0.112251,-0.6263 -0.06798,-1.0502 0.04343,-0.4231 -0.199187,-0.7356 -0.226251,-1.2853 -0.02706,-0.5496 -0.139828,-0.8681 -0.02215,-1.101 0.118313,-0.2329 -0.05047,0.2943 -0.50695,0.5603 -0.456974,0.2656 -0.331492,-0.1461 -0.744821,0.3442 -0.413229,0.4909 -0.549698,0.6754 -0.781697,0.8977 -0.232443,0.2228 -0.388259,0.02 -0.552652,0.3033 -0.163759,0.2837 -0.571723,0.5631 -0.823861,1.3531 -0.25263,0.7912 -0.236255,1.4545 -0.51825,1.3226 -0.281845,-0.1321 -0.701257,-0.4186 -0.612924,-0.9261 0.08827,-0.5067 0.36576,-1.1199 0.385274,-1.3802 0.01991,-0.2605 0.0979,-0.3123 0.0062,-0.5187 -0.09089,-0.206 -0.158842,-0.268 -0.03008,-0.6146 0.129003,-0.3465 0.06725,-0.2788 0.01686,-0.6329 -0.04945,-0.3543 0.05237,-0.2619 0.02249,-0.536 -0.02949,-0.2742 -0.246115,-0.068 -0.0021,-0.3724 0.243951,-0.3035 0.102046,-0.5561 -0.03405,-0.679 -0.135308,-0.1231 -0.135308,-0.1231 -0.135308,-0.1231 0,0 0.100384,-0.5884 0.02301,-0.844 -0.07792,-0.2551 -0.331541,-0.1454 -0.698329,-0.3541 -0.367028,-0.2088 -0.279811,-0.4075 -0.601887,-0.6996 -0.322369,-0.2916 -0.347515,-0.4692 -0.322369,-0.2916 0.0251,0.1767 -0.02818,-0.2425 -0.348637,-0.5018 -0.3212,-0.2596 -0.122333,-0.1722 -0.3212,-0.2596 -0.19862,-0.088 -0.502224,-0.9792 -1.076899,-1.1294 -0.574583,-0.1498 -0.317486,-0.1953 -0.155464,0.1372 0.162561,0.3322 0.160729,0.9479 0.0409,1.1483 -0.120388,0.2007 -0.492513,0.2029 -0.529117,0.4482 -0.03615,0.2446 0.09848,0.6757 -0.227927,0.6267 -0.326856,-0.048 -0.752475,-0.4645 -0.675041,-0.2096 0.07762,0.2557 0.0078,0.8096 0.04483,0.9055 0.03745,0.095 -0.285169,-0.1967 -0.264061,0.2235 0.02057,0.4205 -0.05138,0.6022 -0.05537,0.8458 -0.0045,0.2432 -0.304334,0.4039 -0.131579,0.6222 0.173002,0.2183 0.05039,0.3539 0.239937,0.5877 0.189794,0.2339 0.409765,0.7414 0.505987,1.0446 0.09528,0.3037 0.160037,0.9485 0.0062,1.118 -0.153162,0.1694 -0.189764,0.4149 -0.406062,0.3119 -0.215658,-0.1028 -0.404754,0 -0.625698,-0.5365 -0.221782,-0.5395 -0.149744,-1.0621 -0.323045,-1.2799 -0.173,-0.2184 -0.25774,-0.2959 -0.322767,-0.6328 -0.06552,-0.3373 0.03849,-0.5204 -0.0066,-0.7773 -0.04477,-0.2573 -0.293633,-0.6987 -0.27221,-0.9267 0.02103,-0.2279 0.239107,-0.4005 0.04015,-0.4882 -0.198619,-0.088 -0.279116,-0.067 -0.26414,-0.4244 0.01493,-0.3572 0.103858,-0.5242 -0.08896,-0.4818 -0.191729,0.042 0.10409,0.465 -0.341589,-0.032 -0.445577,-0.4963 -0.388244,-0.9691 -0.49007,-1.0614 -0.102127,-0.092 0.05571,0.4833 -0.381857,0.1485 -0.437716,-0.3344 -0.714056,-0.6777 -0.836145,-0.8499 -0.122088,-0.1721 0.03721,0.095 -0.374746,-0.3709 -0.412244,-0.4655 -0.987027,-0.9556 -0.987027,-0.9556 0,0 0.382962,0.8729 0.37545,1.0513 -0.0069,0.1783 0.152959,-0.5099 -0.265375,0.5314 -0.41784,1.0417 -0.317007,0.794 -0.326702,1.2479 -0.01016,0.4547 -0.111362,0.7026 -0.0947,1.0258 0.01572,0.3236 0.328035,1.7179 0.14187,1.8892 -0.186072,0.1718 0.401652,0.5795 -0.415738,0.1181 -0.8167,-0.462 -0.716483,-0.4024 -1.244021,-0.9114 -0.527683,-0.5086 -0.36944,-0.5811 -0.332292,-0.4855 0.03745,0.095 -0.280234,-0.099 -0.548957,-0.2808 -0.267981,-0.1813 -0.353074,-0.2576 -0.261489,-0.052 0.09139,0.2063 0.0057,0.4374 -0.463621,0.1368 -0.46851,-0.3007 -0.729835,-1.0007 -0.769064,-0.4808 -0.03903,0.5208 -0.183169,0.5444 -0.09585,0.6858 0.08821,0.1416 -0.584274,0.3041 -0.801739,0.1693 -0.217471,-0.1349 -0.647366,-0.3086 -0.448402,-0.2209 0.19911,0.088 -0.139847,0.1209 -0.4679167,0.039 -0.32822,-0.081 -0.740838,-0.239 -0.690171,-0.1929 0.05077,0.046 0.07254,0.1587 -0.42345,-0.044 -0.4965841,-0.2015 -1.0229093,-1.0188 -0.9531889,-0.5848 0.070359,0.4343 -0.047664,0.6665 0.5346332,0.9785 0.5826907,0.3116 0.8545437,0.5569 0.8703667,0.881 0.01593,0.3227 -0.19973,0.2199 -0.03722,0.5527 0.162066,0.332 -0.149105,0.2665 0.224169,0.6044 0.373528,0.338 0.408867,0.4016 0.435629,0.6104 0.02617,0.2098 -0.239806,0.4011 -0.166775,0.56 0.07234,0.1578 -0.124931,0.7511 -0.124931,0.7511 0,0 -0.873812,-0.2966 -0.452736,0.022 0.420821,0.3202 0.573464,0.4585 0.8587807,0.6549 0.285618,0.1959 0.66001,0.2266 0.666018,0.3554 0.0067,0.1299 -0.7393227,-0.2064 0.0067,0.1299 0.745969,0.3353 1.28234,0.6975 1.382404,0.7575 0.100591,0.06 0.956239,0 -0.213449,0.2702 -1.170134,0.2691 -1.53774,0.028 -1.9137917,0.3056 -0.374818,0.2775 -0.416256,0.4259 -0.605599,0.5325 -0.189193,0.1062 -0.206951,0.3994 -0.813341,0.5909 -0.6063469,0.1924 -0.7341886,0.2312 -0.9415837,0.29 -0.2080437,0.059 -0.4618155,0.1687 0.2713067,0.2456 0.733218,0.077 1.098442,0.2542 1.269981,0.4395 0.171094,0.1859 0.100511,0.4003 0.411552,0.466 0.311429,0.066 0.160899,0.2999 0.160899,0.2999 0,0 0.197451,0.055 0.8213327,0.2185 0.623979,0.1636 -0.0484,0.3265 0.645754,0.2757 0.694358,-0.05 0.544123,0.1841 1.264003,0 0.720275,-0.1816 0.901191,0.198 1.643432,0.1293 0.741805,-0.069 1.744813,-0.1188 2.053791,-0.085 0.30967,0.032 1.226481,0.2143 0.381639,0.4999 -0.845035,0.2847 -0.156829,0.1051 -1.400867,0.1822 0,0 -0.271007,0.095 -0.614506,0.031 -0.343741,-0.065 -0.229519,-0.054 -0.769769,0.1675 -0.539711,0.221 -0.618398,0.2734 -1.002173,0.05 -0.383573,-0.2243 -0.467351,-0.2689 -0.738921,0.1331 -0.271628,0.4025 -0.187135,0.4797 -0.374207,0.6184 -0.188074,0.1388 -0.669458,0.2274 -0.669458,0.2274 0,0 0.103097,0.1248 -0.179487,0.3008 -0.283304,0.176 -0.327374,0.2595 -0.741993,0.4102 -0.4141717,0.1499 -1.4048597,0.4257 -1.6544911,0.2919 -0.2492929,-0.1333 -0.030706,0.035 0.7690634,0.4808 0.800154,0.4466 0.9436667,0.3907 1.2828277,0.6979 0.339407,0.3072 0.04023,0.1599 0.414003,0.498 0.372837,0.3386 0.362399,0.4524 0.690767,0.5331 0.327923,0.082 0.218683,0.1678 0.706714,0.2083 0.488128,0.04 0.600267,0.327 0.677153,0.5822 0.07753,0.2554 -0.09312,0.4099 0.144952,0.625 0.237284,0.2153 0.106317,0.1888 0.844993,0.055 0.739219,-0.1337 0.974442,-0.2917 1.236421,-0.2394 0.261835,0.051 0.114329,0.3503 0.45381,0.012 0.339724,-0.341 0.833902,-0.5116 0.8218,-0.43 -0.01217,0.082 0.52468,-0.204 0.52468,-0.204 0,0 0.17074,-0.1541 0.260888,-0.2881 0.09069,-0.1345 0.190855,-0.074 0.317182,-0.1455 0.126178,-0.072 -0.120238,0.2005 0.41953,-0.3608 0.53926,-0.5616 0.662765,-0.3574 0.840153,-0.3827 0.177093,-0.024 0.666136,-0.2918 0.98367,-0.097 l 0.0988,0.028 c 0,0 0.378987,0.1274 0.399002,0.2071 0.01996,0.08 0.07011,0.4339 -0.02297,0.5035 -0.09397,0.069 -0.617723,0.3067 -0.937388,0.3869 -0.320208,0.081 -0.400951,0.1005 -0.599849,0.3215 -0.200175,0.2206 -0.269444,0.1271 -0.52589,0.5123 -0.256305,0.385 -0.138281,0.1527 -0.519246,0.6412 -0.381411,0.4892 0.0172,0.015 -0.626679,0.7611 -0.644156,0.7444 -0.252921,0.79 -0.669775,0.8755 -0.4171,0.085 -0.587744,0.24 -0.587744,0.24 0,0 -0.0675,0.2787 0.771687,0.2046 0.839135,-0.074 0.908848,0.02 1.31355,0.016 0.404754,0 0.502337,-0.012 0.954286,-0.031 0.453228,-0.022 0.108568,0.2216 0.845877,0.055 0.737216,-0.1663 0.662248,-0.05 1.299341,-0.2752 0.636602,-0.2258 0.784799,-0.1845 1.070939,-0.2964 0.286233,-0.1109 0.738522,-0.4743 0.738522,-0.4743 0,0 0.04023,0.1599 0.493483,-0.17 0.454047,-0.3303 0.704401,-0.505 1.180742,-1.0308 0.476196,-0.5255 1.556211,-0.9686 1.63073,-1.4258 0.07482,-0.4578 -0.02758,-0.242 0.571518,-0.9035 0.599004,-0.6621 0.438427,-0.3139 0.673901,-0.1305 0.235917,0.1826 2.082057,1.4523 3.67897,5.5545"
           style="fill:#ffffff;fill-opacity:1;fill-rule:nonzero;stroke:none"
           id="path7171-5-7" />
      </g>
    </g>
  </g>
</svg>
